M48
;Layer_Color=6321
;FILE_FORMAT=4:2
METRIC,TZ
;TYPE=PLATED
T1F00S00C0.80
T2F00S00C0.90
T3F00S00C0.91
T4F00S00C1.00
T5F00S00C1.02
T6F00S00C1.27
T7F00S00C3.50
%
T01
X5000Y2619
X5500
Y3381
X5000
X7000
Y2619
Y4119
Y4881
Y5619
Y6381
X5500
X5000
Y5619
X5500
Y4881
X5000
Y4119
X5500
X4881Y7225
X4119
X3819Y7219
X3281Y6681
X3275Y6381
Y5619
T02
X4373Y6800
X4500
X4627
X3915Y6765
X3825Y6675
X3735Y6585
X3700Y6127
Y6000
Y5873
T03
X2121Y2748
Y3002
Y3256
Y3510
Y3764
X3645
Y3510
Y3256
Y3002
Y2748
Y4018
Y4272
Y4526
Y4780
Y5034
Y5288
Y5542
X2121
Y5288
Y5034
Y4780
Y4526
Y4272
Y4018
X2123Y6150
X2377
T04
X1750Y2750
X7750
Y7150
X1750
T05
X6075Y6724
Y7176
X6725
Y6724
T06
X4500Y3000
X6000
X7500
Y4500
X6000
Y6000
X4500
X4000
X4075Y6425
X4500Y6500
Y4500
X7500Y6000
T07
X1800Y6650
X2250Y7100
M30
