G04 Layer_Physical_Order=1*
G04 Layer_Color=25308*
%FSLAX42Y42*%
%MOMM*%
G71*
G01*
G75*
%ADD10C,0.25*%
%ADD11C,0.51*%
%ADD12C,1.65*%
%ADD13C,3.50*%
%ADD14C,2.00*%
%ADD15C,1.60*%
%ADD16C,1.91*%
%ADD17C,2.29*%
%ADD18R,1.52X1.52*%
%ADD19C,1.52*%
%ADD20O,2.00X1.00*%
%ADD21O,2.00X1.00*%
G04:AMPARAMS|DCode=22|XSize=2mm|YSize=1mm|CornerRadius=0mm|HoleSize=0mm|Usage=FLASHONLY|Rotation=315.000|XOffset=0mm|YOffset=0mm|HoleType=Round|Shape=Round|*
%AMOVALD22*
21,1,1.00,1.00,0.00,0.00,315.0*
1,1,1.00,-0.35,0.35*
1,1,1.00,0.35,-0.35*
%
%ADD22OVALD22*%

G04:AMPARAMS|DCode=23|XSize=2mm|YSize=1mm|CornerRadius=0mm|HoleSize=0mm|Usage=FLASHONLY|Rotation=315.000|XOffset=0mm|YOffset=0mm|HoleType=Round|Shape=Round|*
%AMOVALD23*
21,1,1.00,1.00,0.00,0.00,315.0*
1,1,1.00,-0.35,0.35*
1,1,1.00,0.35,-0.35*
%
%ADD23OVALD23*%

%ADD24O,1.00X2.00*%
%ADD25O,1.00X2.00*%
G36*
X7966Y2534D02*
X7081D01*
X7077Y2546D01*
X7092Y2566D01*
X7103Y2591D01*
X7106Y2619D01*
X7103Y2647D01*
X7092Y2672D01*
X7075Y2694D01*
X7053Y2711D01*
X7039Y2717D01*
Y2834D01*
X7166Y2961D01*
X7365D01*
X7378Y2930D01*
X7400Y2900D01*
X7430Y2878D01*
X7464Y2864D01*
X7500Y2859D01*
X7536Y2864D01*
X7570Y2878D01*
X7600Y2900D01*
X7622Y2930D01*
X7636Y2964D01*
X7641Y3000D01*
X7636Y3036D01*
X7622Y3070D01*
X7600Y3100D01*
X7570Y3122D01*
X7536Y3136D01*
X7500Y3141D01*
X7464Y3136D01*
X7430Y3122D01*
X7400Y3100D01*
X7378Y3070D01*
X7365Y3039D01*
X7150D01*
X7135Y3036D01*
X7123Y3027D01*
X6973Y2877D01*
X6964Y2865D01*
X6961Y2850D01*
Y2717D01*
X6947Y2711D01*
X6925Y2694D01*
X6908Y2672D01*
X6897Y2647D01*
X6894Y2619D01*
X6897Y2591D01*
X6908Y2566D01*
X6923Y2546D01*
X6919Y2534D01*
X5581D01*
X5577Y2546D01*
X5592Y2566D01*
X5603Y2591D01*
X5606Y2619D01*
X5603Y2647D01*
X5592Y2672D01*
X5575Y2694D01*
X5553Y2711D01*
X5539Y2717D01*
Y2834D01*
X5666Y2961D01*
X5865D01*
X5878Y2930D01*
X5900Y2900D01*
X5930Y2878D01*
X5964Y2864D01*
X6000Y2859D01*
X6036Y2864D01*
X6070Y2878D01*
X6100Y2900D01*
X6122Y2930D01*
X6136Y2964D01*
X6141Y3000D01*
X6136Y3036D01*
X6122Y3070D01*
X6100Y3100D01*
X6070Y3122D01*
X6036Y3136D01*
X6000Y3141D01*
X5964Y3136D01*
X5930Y3122D01*
X5900Y3100D01*
X5878Y3070D01*
X5865Y3039D01*
X5650D01*
X5635Y3036D01*
X5623Y3027D01*
X5473Y2877D01*
X5464Y2865D01*
X5461Y2850D01*
Y2717D01*
X5447Y2711D01*
X5425Y2694D01*
X5408Y2672D01*
X5397Y2647D01*
X5394Y2619D01*
X5397Y2591D01*
X5408Y2566D01*
X5423Y2546D01*
X5419Y2534D01*
X5081D01*
X5077Y2546D01*
X5092Y2566D01*
X5103Y2591D01*
X5106Y2619D01*
X5103Y2647D01*
X5092Y2672D01*
X5075Y2694D01*
X5053Y2711D01*
X5039Y2717D01*
Y2850D01*
X5036Y2865D01*
X5027Y2877D01*
X4877Y3027D01*
X4865Y3036D01*
X4850Y3039D01*
X4635D01*
X4622Y3070D01*
X4600Y3100D01*
X4570Y3122D01*
X4536Y3136D01*
X4500Y3141D01*
X4464Y3136D01*
X4430Y3122D01*
X4400Y3100D01*
X4378Y3070D01*
X4364Y3036D01*
X4359Y3000D01*
X4364Y2964D01*
X4378Y2930D01*
X4400Y2900D01*
X4430Y2878D01*
X4464Y2864D01*
X4500Y2859D01*
X4536Y2864D01*
X4570Y2878D01*
X4600Y2900D01*
X4622Y2930D01*
X4635Y2961D01*
X4834D01*
X4961Y2834D01*
Y2717D01*
X4947Y2711D01*
X4925Y2694D01*
X4908Y2672D01*
X4897Y2647D01*
X4894Y2619D01*
X4897Y2591D01*
X4908Y2566D01*
X4923Y2546D01*
X4919Y2534D01*
X3755D01*
X3750Y2545D01*
X4365Y3160D01*
X5390D01*
X5394Y3161D01*
X6819D01*
X6834Y3164D01*
X6846Y3173D01*
X6958Y3284D01*
X6972Y3278D01*
X7000Y3275D01*
X7028Y3278D01*
X7053Y3289D01*
X7075Y3306D01*
X7092Y3328D01*
X7103Y3353D01*
X7106Y3381D01*
X7103Y3409D01*
X7092Y3434D01*
X7075Y3456D01*
X7053Y3473D01*
X7028Y3484D01*
X7000Y3487D01*
X6972Y3484D01*
X6947Y3473D01*
X6925Y3456D01*
X6908Y3434D01*
X6897Y3409D01*
X6894Y3381D01*
X6897Y3353D01*
X6903Y3339D01*
X6803Y3239D01*
X5429D01*
X5425Y3251D01*
X5458Y3284D01*
X5472Y3278D01*
X5500Y3275D01*
X5528Y3278D01*
X5553Y3289D01*
X5575Y3306D01*
X5592Y3328D01*
X5603Y3353D01*
X5606Y3381D01*
X5603Y3409D01*
X5592Y3434D01*
X5581Y3448D01*
X5587Y3461D01*
X6850D01*
X6865Y3464D01*
X6877Y3473D01*
X7027Y3623D01*
X7036Y3635D01*
X7039Y3650D01*
Y4021D01*
X7053Y4027D01*
X7075Y4044D01*
X7092Y4066D01*
X7103Y4091D01*
X7106Y4119D01*
X7103Y4147D01*
X7092Y4172D01*
X7075Y4194D01*
X7053Y4211D01*
X7028Y4222D01*
X7000Y4225D01*
X6972Y4222D01*
X6947Y4211D01*
X6925Y4194D01*
X6908Y4172D01*
X6897Y4147D01*
X6894Y4119D01*
X6897Y4091D01*
X6908Y4066D01*
X6925Y4044D01*
X6947Y4027D01*
X6961Y4021D01*
Y3666D01*
X6834Y3539D01*
X4143D01*
X4128Y3536D01*
X4116Y3527D01*
X3689Y3101D01*
X3673Y3107D01*
X3645Y3111D01*
X3617Y3107D01*
X3591Y3096D01*
X3568Y3079D01*
X3551Y3056D01*
X3540Y3030D01*
X3536Y3002D01*
X3540Y2974D01*
X3551Y2948D01*
X3568Y2925D01*
X3591Y2908D01*
X3617Y2897D01*
X3645Y2893D01*
X3673Y2897D01*
X3700Y2908D01*
X3722Y2925D01*
X3739Y2948D01*
X3750Y2974D01*
X3754Y3002D01*
X3750Y3030D01*
X3744Y3046D01*
X4159Y3461D01*
X4913D01*
X4919Y3448D01*
X4908Y3434D01*
X4902Y3420D01*
X4278D01*
X4263Y3417D01*
X4251Y3408D01*
X3689Y2847D01*
X3673Y2853D01*
X3645Y2857D01*
X3617Y2853D01*
X3591Y2842D01*
X3568Y2825D01*
X3551Y2802D01*
X3540Y2776D01*
X3536Y2748D01*
X3540Y2720D01*
X3551Y2694D01*
X3568Y2671D01*
X3591Y2654D01*
X3594Y2652D01*
X3591Y2640D01*
X2284D01*
X2220Y2704D01*
X2226Y2720D01*
X2230Y2748D01*
X2226Y2776D01*
X2215Y2802D01*
X2198Y2825D01*
X2176Y2842D01*
X2149Y2853D01*
X2121Y2857D01*
X2093Y2853D01*
X2067Y2842D01*
X2052Y2831D01*
X2039Y2837D01*
Y2884D01*
X2064Y2909D01*
X2067Y2908D01*
X2093Y2897D01*
X2121Y2893D01*
X2149Y2897D01*
X2176Y2908D01*
X2198Y2925D01*
X2215Y2948D01*
X2226Y2974D01*
X2230Y3002D01*
X2226Y3030D01*
X2215Y3056D01*
X2198Y3079D01*
X2176Y3096D01*
X2149Y3107D01*
X2121Y3111D01*
X2093Y3107D01*
X2067Y3096D01*
X2044Y3079D01*
X2027Y3056D01*
X2016Y3030D01*
X2012Y3002D01*
X2016Y2974D01*
X2017Y2972D01*
X1973Y2928D01*
X1965Y2915D01*
X1962Y2900D01*
Y2698D01*
X1965Y2683D01*
X1973Y2671D01*
X2098Y2545D01*
X2093Y2534D01*
X1534D01*
Y7366D01*
X2225D01*
Y7299D01*
X2211Y7298D01*
X2173Y7286D01*
X2138Y7267D01*
X2108Y7242D01*
X2083Y7212D01*
X2064Y7177D01*
X2052Y7139D01*
X2049Y7100D01*
X2052Y7061D01*
X2064Y7023D01*
X2083Y6988D01*
X2108Y6958D01*
X2138Y6933D01*
X2173Y6914D01*
X2211Y6903D01*
X2225Y6901D01*
X2225Y6655D01*
X1823Y6252D01*
X1814Y6240D01*
X1811Y6225D01*
Y4289D01*
X1814Y4274D01*
X1823Y4262D01*
X2022Y4062D01*
X2016Y4046D01*
X2012Y4018D01*
X2016Y3990D01*
X2027Y3964D01*
X2044Y3941D01*
X2067Y3924D01*
X2093Y3913D01*
X2121Y3909D01*
X2149Y3913D01*
X2176Y3924D01*
X2198Y3941D01*
X2215Y3964D01*
X2226Y3990D01*
X2230Y4018D01*
X2226Y4046D01*
X2215Y4072D01*
X2198Y4095D01*
X2176Y4112D01*
X2149Y4123D01*
X2121Y4127D01*
X2093Y4123D01*
X2077Y4117D01*
X1889Y4305D01*
Y6209D01*
X2213Y6533D01*
X2225Y6528D01*
Y6264D01*
X2212Y6252D01*
X2136D01*
Y6163D01*
X2225D01*
Y6182D01*
X2237Y6188D01*
X2252Y6173D01*
X2249Y6150D01*
X2253Y6117D01*
X2266Y6086D01*
X2286Y6059D01*
X2300Y6049D01*
Y5059D01*
X2235Y4994D01*
X2224Y5001D01*
X2226Y5006D01*
X2230Y5034D01*
X2226Y5062D01*
X2215Y5088D01*
X2198Y5111D01*
X2176Y5128D01*
X2149Y5139D01*
X2121Y5143D01*
X2093Y5139D01*
X2067Y5128D01*
X2044Y5111D01*
X2027Y5088D01*
X2016Y5062D01*
X2012Y5034D01*
X2016Y5006D01*
X2027Y4980D01*
X2044Y4957D01*
X2067Y4940D01*
X2093Y4929D01*
X2113Y4926D01*
Y4913D01*
X2086Y4910D01*
X2054Y4896D01*
X2026Y4875D01*
X2005Y4847D01*
X1991Y4815D01*
X1987Y4780D01*
X1991Y4745D01*
X2005Y4713D01*
X2026Y4685D01*
X2054Y4664D01*
X2086Y4650D01*
X2113Y4647D01*
Y4634D01*
X2093Y4631D01*
X2067Y4620D01*
X2044Y4603D01*
X2027Y4580D01*
X2016Y4554D01*
X2012Y4526D01*
X2016Y4498D01*
X2027Y4472D01*
X2044Y4449D01*
X2067Y4432D01*
X2093Y4421D01*
X2121Y4417D01*
X2149Y4421D01*
X2176Y4432D01*
X2198Y4449D01*
X2215Y4472D01*
X2226Y4498D01*
X2230Y4526D01*
X2226Y4554D01*
X2215Y4580D01*
X2198Y4603D01*
X2176Y4620D01*
X2149Y4631D01*
X2129Y4634D01*
Y4647D01*
X2156Y4650D01*
X2188Y4664D01*
X2216Y4685D01*
X2238Y4713D01*
X2251Y4745D01*
X2256Y4780D01*
X2254Y4795D01*
X2431Y4973D01*
X2444Y4989D01*
X2446Y4994D01*
X2451Y5007D01*
X2454Y5027D01*
Y5955D01*
X2466Y5959D01*
X2715Y5710D01*
X3123D01*
X3128Y5698D01*
X3097Y5667D01*
X3089Y5654D01*
X3086Y5640D01*
Y5292D01*
X2165Y4371D01*
X2149Y4377D01*
X2121Y4381D01*
X2093Y4377D01*
X2067Y4366D01*
X2044Y4349D01*
X2027Y4326D01*
X2016Y4300D01*
X2012Y4272D01*
X2016Y4244D01*
X2027Y4218D01*
X2044Y4195D01*
X2067Y4178D01*
X2093Y4167D01*
X2121Y4163D01*
X2149Y4167D01*
X2176Y4178D01*
X2198Y4195D01*
X2215Y4218D01*
X2226Y4244D01*
X2230Y4272D01*
X2226Y4300D01*
X2220Y4316D01*
X3152Y5248D01*
X3160Y5261D01*
X3163Y5275D01*
Y5580D01*
X3176Y5582D01*
X3183Y5566D01*
X3200Y5544D01*
X3222Y5527D01*
X3236Y5521D01*
Y4934D01*
X2165Y3863D01*
X2149Y3869D01*
X2121Y3873D01*
X2093Y3869D01*
X2067Y3858D01*
X2044Y3841D01*
X2027Y3818D01*
X2016Y3792D01*
X2012Y3764D01*
X2016Y3736D01*
X2027Y3710D01*
X2044Y3687D01*
X2067Y3670D01*
X2093Y3659D01*
X2121Y3655D01*
X2149Y3659D01*
X2176Y3670D01*
X2198Y3687D01*
X2215Y3710D01*
X2226Y3736D01*
X2230Y3764D01*
X2226Y3792D01*
X2220Y3808D01*
X3302Y4890D01*
X3311Y4903D01*
X3314Y4918D01*
Y5521D01*
X3328Y5527D01*
X3350Y5544D01*
X3367Y5566D01*
X3378Y5591D01*
X3381Y5619D01*
X3378Y5647D01*
X3367Y5672D01*
X3350Y5694D01*
X3345Y5698D01*
X3349Y5710D01*
X4135D01*
X4363Y5938D01*
X4375Y5936D01*
X4378Y5930D01*
X4400Y5900D01*
X4430Y5878D01*
X4464Y5864D01*
X4500Y5859D01*
X4536Y5864D01*
X4570Y5878D01*
X4600Y5900D01*
X4622Y5930D01*
X4635Y5961D01*
X4850D01*
X4865Y5964D01*
X4877Y5973D01*
X5027Y6123D01*
X5036Y6135D01*
X5039Y6150D01*
Y6283D01*
X5053Y6289D01*
X5075Y6306D01*
X5092Y6328D01*
X5103Y6353D01*
X5106Y6381D01*
X5103Y6409D01*
X5092Y6434D01*
X5075Y6456D01*
X5053Y6473D01*
X5028Y6484D01*
X5000Y6487D01*
X4972Y6484D01*
X4947Y6473D01*
X4925Y6456D01*
X4908Y6434D01*
X4897Y6409D01*
X4894Y6381D01*
X4897Y6353D01*
X4908Y6328D01*
X4925Y6306D01*
X4947Y6289D01*
X4961Y6283D01*
Y6166D01*
X4834Y6039D01*
X4635D01*
X4622Y6070D01*
X4600Y6100D01*
X4570Y6122D01*
X4564Y6125D01*
X4562Y6137D01*
X4625Y6200D01*
Y6437D01*
X4636Y6464D01*
X4641Y6500D01*
X4636Y6536D01*
X4625Y6563D01*
Y6672D01*
X4627Y6674D01*
X4647Y6677D01*
X4665Y6684D01*
X4681Y6696D01*
X4693Y6712D01*
X4700Y6730D01*
X4703Y6750D01*
Y6850D01*
X4700Y6870D01*
X4693Y6888D01*
X4681Y6904D01*
X4666Y6915D01*
Y6955D01*
X4839Y7128D01*
X4853Y7122D01*
X4881Y7119D01*
X4909Y7122D01*
X4934Y7133D01*
X4956Y7150D01*
X4973Y7172D01*
X4984Y7197D01*
X4987Y7225D01*
X4984Y7253D01*
X4973Y7278D01*
X4956Y7300D01*
X4934Y7317D01*
X4909Y7328D01*
X4881Y7331D01*
X4853Y7328D01*
X4828Y7317D01*
X4806Y7300D01*
X4789Y7278D01*
X4778Y7253D01*
X4775Y7225D01*
X4778Y7197D01*
X4784Y7183D01*
X4637Y7036D01*
X4625Y7041D01*
Y7366D01*
X7966D01*
Y2534D01*
D02*
G37*
G36*
X4908Y3328D02*
X4925Y3306D01*
X4930Y3302D01*
X4926Y3289D01*
X4318D01*
X4303Y3286D01*
X4290Y3277D01*
X3766Y2753D01*
X3753Y2758D01*
X3750Y2776D01*
X3744Y2792D01*
X4294Y3342D01*
X4902D01*
X4908Y3328D01*
D02*
G37*
G36*
X4573Y7041D02*
Y7041D01*
X4577Y7021D01*
X4585Y7009D01*
X4588Y7004D01*
X4593Y6988D01*
X4591Y6986D01*
X4588Y6971D01*
Y6915D01*
X4573Y6904D01*
X4570Y6899D01*
X4557D01*
X4554Y6904D01*
X4538Y6916D01*
X4520Y6923D01*
X4500Y6926D01*
X4480Y6923D01*
X4462Y6916D01*
X4446Y6904D01*
X4443Y6899D01*
X4430D01*
X4427Y6904D01*
X4411Y6916D01*
X4393Y6923D01*
X4386Y6924D01*
Y6800D01*
Y6676D01*
X4393Y6677D01*
X4411Y6684D01*
X4427Y6696D01*
X4427Y6696D01*
X4441Y6697D01*
X4448Y6690D01*
Y6630D01*
X4430Y6622D01*
X4400Y6600D01*
X4378Y6570D01*
X4364Y6536D01*
X4359Y6500D01*
X4364Y6464D01*
X4378Y6430D01*
X4400Y6400D01*
X4430Y6378D01*
X4464Y6364D01*
X4500Y6359D01*
X4536Y6364D01*
X4561Y6374D01*
X4573Y6365D01*
Y6221D01*
X4525Y6174D01*
X4523Y6169D01*
X4519Y6166D01*
X4517Y6161D01*
X4514Y6157D01*
X4513Y6152D01*
X4511Y6147D01*
X4500Y6141D01*
X4464Y6136D01*
X4430Y6122D01*
X4400Y6100D01*
X4378Y6070D01*
X4364Y6036D01*
X4359Y6000D01*
X4353Y5989D01*
X4348Y5987D01*
X4343Y5986D01*
X4339Y5983D01*
X4334Y5981D01*
X4331Y5977D01*
X4326Y5975D01*
X4278Y5926D01*
X4266Y5931D01*
Y7117D01*
X4263Y7131D01*
X4255Y7144D01*
X4216Y7183D01*
X4222Y7197D01*
X4225Y7225D01*
X4222Y7253D01*
X4211Y7278D01*
X4194Y7300D01*
X4172Y7317D01*
X4147Y7328D01*
X4119Y7331D01*
X4091Y7328D01*
X4066Y7317D01*
X4044Y7300D01*
X4027Y7278D01*
X4016Y7253D01*
X4013Y7225D01*
X4016Y7197D01*
X4027Y7172D01*
X4044Y7150D01*
X4066Y7133D01*
X4091Y7122D01*
X4119Y7119D01*
X4147Y7122D01*
X4161Y7128D01*
X4189Y7101D01*
Y6526D01*
X4177Y6522D01*
X4175Y6525D01*
X4145Y6547D01*
X4111Y6561D01*
X4075Y6566D01*
X4039Y6561D01*
X4020Y6553D01*
X3936Y6637D01*
X3936Y6640D01*
X3936Y6645D01*
X3945Y6654D01*
X3950Y6653D01*
X3970Y6656D01*
X3988Y6664D01*
X4004Y6676D01*
X4016Y6691D01*
X4024Y6710D01*
X4026Y6729D01*
X4024Y6749D01*
X4016Y6767D01*
X4004Y6783D01*
X3933Y6854D01*
X3917Y6866D01*
X3899Y6874D01*
X3879Y6876D01*
X3870Y6875D01*
X3858Y6886D01*
Y7121D01*
X3873Y7127D01*
X3895Y7144D01*
X3911Y7166D01*
X3922Y7192D01*
X3926Y7219D01*
X3922Y7247D01*
X3911Y7273D01*
X3895Y7295D01*
X3873Y7311D01*
X3847Y7322D01*
X3819Y7326D01*
X3792Y7322D01*
X3766Y7311D01*
X3744Y7295D01*
X3727Y7273D01*
X3717Y7247D01*
X3713Y7219D01*
X3717Y7192D01*
X3727Y7166D01*
X3744Y7144D01*
X3766Y7127D01*
X3781Y7121D01*
Y6860D01*
X3784Y6845D01*
X3792Y6833D01*
X3806Y6819D01*
X3803Y6800D01*
X3804Y6795D01*
X3795Y6786D01*
X3790Y6786D01*
X3770Y6784D01*
X3752Y6776D01*
X3736Y6764D01*
X3724Y6748D01*
X3716Y6730D01*
X3714Y6710D01*
X3714Y6705D01*
X3705Y6696D01*
X3700Y6697D01*
X3680Y6694D01*
X3662Y6686D01*
X3656Y6682D01*
X3744Y6594D01*
X3832Y6506D01*
X3836Y6512D01*
X3844Y6530D01*
X3847Y6550D01*
X3846Y6555D01*
X3855Y6564D01*
X3860Y6564D01*
X3863Y6564D01*
X3947Y6480D01*
X3939Y6461D01*
X3934Y6425D01*
X3939Y6389D01*
X3953Y6355D01*
X3975Y6325D01*
X4005Y6303D01*
X4039Y6289D01*
X4075Y6284D01*
X4111Y6289D01*
X4145Y6303D01*
X4175Y6325D01*
X4177Y6328D01*
X4189Y6324D01*
Y5873D01*
X4104Y5789D01*
X3777D01*
X3775Y5802D01*
X3788Y5807D01*
X3804Y5819D01*
X3816Y5835D01*
X3823Y5853D01*
X3824Y5860D01*
X3576D01*
X3577Y5853D01*
X3584Y5835D01*
X3596Y5819D01*
X3612Y5807D01*
X3625Y5802D01*
X3623Y5789D01*
X3235D01*
X3220Y5786D01*
X3208Y5777D01*
X3174Y5744D01*
X3162Y5745D01*
X3160Y5747D01*
X3153Y5751D01*
X3143Y5758D01*
X3143D01*
X3143Y5758D01*
X3135Y5759D01*
X3123Y5762D01*
X2738D01*
X2441Y6059D01*
X2442Y6072D01*
X2449Y6078D01*
X2466Y6099D01*
X2476Y6123D01*
X2478Y6137D01*
X2377D01*
Y6150D01*
X2364D01*
Y6251D01*
X2350Y6249D01*
X2326Y6239D01*
X2305Y6222D01*
X2299Y6215D01*
X2286Y6214D01*
X2266Y6234D01*
X2267Y6236D01*
X2273Y6244D01*
X2273Y6244D01*
X2273Y6244D01*
X2275Y6254D01*
X2277Y6264D01*
X2277Y6264D01*
X2277Y6264D01*
Y6528D01*
Y6528D01*
Y6528D01*
X2275Y6536D01*
X2273Y6548D01*
X2273Y6548D01*
Y6548D01*
X2269Y6554D01*
X2262Y6565D01*
X2262Y6565D01*
X2260Y6580D01*
X2322Y6642D01*
X3183D01*
X3189Y6627D01*
X3205Y6605D01*
X3227Y6589D01*
X3253Y6578D01*
X3281Y6574D01*
X3308Y6578D01*
X3334Y6589D01*
X3356Y6605D01*
X3373Y6627D01*
X3383Y6653D01*
X3387Y6681D01*
X3383Y6708D01*
X3373Y6734D01*
X3356Y6756D01*
X3334Y6773D01*
X3308Y6783D01*
X3281Y6787D01*
X3253Y6783D01*
X3227Y6773D01*
X3205Y6756D01*
X3189Y6734D01*
X3183Y6719D01*
X2306D01*
X2291Y6716D01*
X2289Y6716D01*
X2277Y6722D01*
X2277Y6901D01*
X2277Y6901D01*
X2289Y6903D01*
X2327Y6914D01*
X2362Y6933D01*
X2392Y6958D01*
X2417Y6988D01*
X2436Y7023D01*
X2448Y7061D01*
X2451Y7100D01*
X2448Y7139D01*
X2436Y7177D01*
X2417Y7212D01*
X2392Y7242D01*
X2362Y7267D01*
X2327Y7286D01*
X2289Y7298D01*
X2277Y7299D01*
X2277Y7299D01*
Y7366D01*
X4573D01*
Y7041D01*
D02*
G37*
G36*
X5419Y3448D02*
X5408Y3434D01*
X5397Y3409D01*
X5394Y3381D01*
X5397Y3353D01*
X5403Y3339D01*
X5353Y3289D01*
X5074D01*
X5070Y3302D01*
X5075Y3306D01*
X5092Y3328D01*
X5103Y3353D01*
X5106Y3381D01*
X5103Y3409D01*
X5092Y3434D01*
X5081Y3448D01*
X5087Y3461D01*
X5413D01*
X5419Y3448D01*
D02*
G37*
%LPC*%
G36*
X3752Y4767D02*
X3658D01*
Y4673D01*
X3673Y4675D01*
X3700Y4686D01*
X3722Y4703D01*
X3739Y4726D01*
X3750Y4752D01*
X3752Y4767D01*
D02*
G37*
G36*
X3632Y4887D02*
X3617Y4885D01*
X3591Y4874D01*
X3568Y4857D01*
X3551Y4834D01*
X3540Y4808D01*
X3538Y4793D01*
X3632D01*
Y4887D01*
D02*
G37*
G36*
X2121Y5651D02*
X2093Y5647D01*
X2067Y5636D01*
X2044Y5619D01*
X2027Y5596D01*
X2016Y5570D01*
X2012Y5542D01*
X2016Y5514D01*
X2027Y5488D01*
X2044Y5465D01*
X2067Y5448D01*
X2093Y5437D01*
X2121Y5433D01*
X2149Y5437D01*
X2176Y5448D01*
X2198Y5465D01*
X2215Y5488D01*
X2226Y5514D01*
X2230Y5542D01*
X2226Y5570D01*
X2215Y5596D01*
X2198Y5619D01*
X2176Y5636D01*
X2149Y5647D01*
X2121Y5651D01*
D02*
G37*
G36*
X3632Y4767D02*
X3538D01*
X3540Y4752D01*
X3551Y4726D01*
X3568Y4703D01*
X3591Y4686D01*
X3617Y4675D01*
X3632Y4673D01*
Y4767D01*
D02*
G37*
G36*
X3645Y5651D02*
X3617Y5647D01*
X3591Y5636D01*
X3568Y5619D01*
X3551Y5596D01*
X3540Y5570D01*
X3536Y5542D01*
X3540Y5514D01*
X3551Y5488D01*
X3568Y5465D01*
X3591Y5448D01*
X3617Y5437D01*
X3645Y5433D01*
X3673Y5437D01*
X3700Y5448D01*
X3722Y5465D01*
X3739Y5488D01*
X3750Y5514D01*
X3754Y5542D01*
X3750Y5570D01*
X3739Y5596D01*
X3722Y5619D01*
X3700Y5636D01*
X3673Y5647D01*
X3645Y5651D01*
D02*
G37*
G36*
X5000Y4987D02*
X4972Y4984D01*
X4947Y4973D01*
X4925Y4956D01*
X4908Y4934D01*
X4897Y4909D01*
X4894Y4881D01*
X4897Y4853D01*
X4908Y4828D01*
X4925Y4806D01*
X4947Y4789D01*
X4961Y4783D01*
Y4666D01*
X4834Y4539D01*
X4635D01*
X4622Y4570D01*
X4600Y4600D01*
X4570Y4622D01*
X4536Y4636D01*
X4500Y4641D01*
X4464Y4636D01*
X4430Y4622D01*
X4400Y4600D01*
X4378Y4570D01*
X4364Y4536D01*
X4359Y4500D01*
X4364Y4464D01*
X4378Y4430D01*
X4400Y4400D01*
X4430Y4378D01*
X4464Y4364D01*
X4500Y4359D01*
X4536Y4364D01*
X4570Y4378D01*
X4600Y4400D01*
X4622Y4430D01*
X4635Y4461D01*
X4850D01*
X4865Y4464D01*
X4877Y4473D01*
X5027Y4623D01*
X5036Y4635D01*
X5039Y4650D01*
Y4783D01*
X5053Y4789D01*
X5075Y4806D01*
X5092Y4828D01*
X5103Y4853D01*
X5106Y4881D01*
X5103Y4909D01*
X5092Y4934D01*
X5075Y4956D01*
X5053Y4973D01*
X5028Y4984D01*
X5000Y4987D01*
D02*
G37*
G36*
X6725Y6846D02*
X6694Y6841D01*
X6664Y6829D01*
X6639Y6810D01*
X6620Y6785D01*
X6608Y6755D01*
X6603Y6724D01*
X6608Y6692D01*
X6620Y6663D01*
X6639Y6638D01*
X6664Y6619D01*
X6686Y6609D01*
Y6041D01*
X6484Y5839D01*
X4919D01*
X4904Y5836D01*
X4892Y5827D01*
X3689Y4625D01*
X3673Y4631D01*
X3645Y4635D01*
X3617Y4631D01*
X3591Y4620D01*
X3568Y4603D01*
X3551Y4580D01*
X3540Y4554D01*
X3536Y4526D01*
X3540Y4498D01*
X3551Y4472D01*
X3568Y4449D01*
X3591Y4432D01*
X3617Y4421D01*
X3645Y4417D01*
X3673Y4421D01*
X3700Y4432D01*
X3722Y4449D01*
X3739Y4472D01*
X3750Y4498D01*
X3754Y4526D01*
X3750Y4554D01*
X3744Y4570D01*
X4935Y5761D01*
X6500D01*
X6515Y5764D01*
X6527Y5773D01*
X6753Y5998D01*
X6761Y6010D01*
X6764Y6025D01*
Y6609D01*
X6786Y6619D01*
X6811Y6638D01*
X6831Y6663D01*
X6843Y6692D01*
X6847Y6724D01*
X6843Y6755D01*
X6831Y6785D01*
X6811Y6810D01*
X6786Y6829D01*
X6757Y6841D01*
X6725Y6846D01*
D02*
G37*
G36*
X2108Y5275D02*
X2014D01*
X2016Y5260D01*
X2027Y5234D01*
X2044Y5211D01*
X2067Y5194D01*
X2093Y5183D01*
X2108Y5181D01*
Y5275D01*
D02*
G37*
G36*
X2228D02*
X2134D01*
Y5181D01*
X2149Y5183D01*
X2176Y5194D01*
X2198Y5211D01*
X2215Y5234D01*
X2226Y5260D01*
X2228Y5275D01*
D02*
G37*
G36*
X2108Y5395D02*
X2093Y5393D01*
X2067Y5382D01*
X2044Y5365D01*
X2027Y5342D01*
X2016Y5316D01*
X2014Y5301D01*
X2108D01*
Y5395D01*
D02*
G37*
G36*
X3645Y5397D02*
X3617Y5393D01*
X3591Y5382D01*
X3568Y5365D01*
X3551Y5342D01*
X3540Y5316D01*
X3536Y5288D01*
X3540Y5260D01*
X3551Y5234D01*
X3568Y5211D01*
X3591Y5194D01*
X3617Y5183D01*
X3645Y5179D01*
X3673Y5183D01*
X3700Y5194D01*
X3722Y5211D01*
X3739Y5234D01*
X3750Y5260D01*
X3754Y5288D01*
X3750Y5316D01*
X3739Y5342D01*
X3722Y5365D01*
X3700Y5382D01*
X3673Y5393D01*
X3645Y5397D01*
D02*
G37*
G36*
X3658Y4887D02*
Y4793D01*
X3752D01*
X3750Y4808D01*
X3739Y4834D01*
X3722Y4857D01*
X3700Y4874D01*
X3673Y4885D01*
X3658Y4887D01*
D02*
G37*
G36*
X3645Y5143D02*
X3617Y5139D01*
X3591Y5128D01*
X3568Y5111D01*
X3551Y5088D01*
X3540Y5062D01*
X3536Y5034D01*
X3540Y5006D01*
X3551Y4980D01*
X3568Y4957D01*
X3591Y4940D01*
X3617Y4929D01*
X3645Y4925D01*
X3673Y4929D01*
X3700Y4940D01*
X3722Y4957D01*
X3739Y4980D01*
X3750Y5006D01*
X3754Y5034D01*
X3750Y5062D01*
X3739Y5088D01*
X3722Y5111D01*
X3700Y5128D01*
X3673Y5139D01*
X3645Y5143D01*
D02*
G37*
G36*
X2134Y5395D02*
Y5301D01*
X2228D01*
X2226Y5316D01*
X2215Y5342D01*
X2198Y5365D01*
X2176Y5382D01*
X2149Y5393D01*
X2134Y5395D01*
D02*
G37*
G36*
X7000Y4987D02*
X6972Y4984D01*
X6947Y4973D01*
X6925Y4956D01*
X6908Y4934D01*
X6897Y4909D01*
X6894Y4881D01*
X6897Y4853D01*
X6908Y4828D01*
X6925Y4806D01*
X6947Y4789D01*
X6961Y4783D01*
Y4650D01*
X6964Y4635D01*
X6973Y4623D01*
X7123Y4473D01*
X7135Y4464D01*
X7150Y4461D01*
X7365D01*
X7378Y4430D01*
X7400Y4400D01*
X7430Y4378D01*
X7464Y4364D01*
X7500Y4359D01*
X7536Y4364D01*
X7570Y4378D01*
X7600Y4400D01*
X7622Y4430D01*
X7636Y4464D01*
X7641Y4500D01*
X7636Y4536D01*
X7622Y4570D01*
X7600Y4600D01*
X7570Y4622D01*
X7536Y4636D01*
X7500Y4641D01*
X7464Y4636D01*
X7430Y4622D01*
X7400Y4600D01*
X7378Y4570D01*
X7365Y4539D01*
X7166D01*
X7039Y4666D01*
Y4783D01*
X7053Y4789D01*
X7075Y4806D01*
X7092Y4828D01*
X7103Y4853D01*
X7106Y4881D01*
X7103Y4909D01*
X7092Y4934D01*
X7075Y4956D01*
X7053Y4973D01*
X7028Y4984D01*
X7000Y4987D01*
D02*
G37*
G36*
X1737Y2875D02*
X1717Y2872D01*
X1687Y2860D01*
X1661Y2839D01*
X1640Y2813D01*
X1628Y2783D01*
X1625Y2763D01*
X1737D01*
Y2875D01*
D02*
G37*
G36*
X1763D02*
Y2763D01*
X1875D01*
X1872Y2783D01*
X1860Y2813D01*
X1839Y2839D01*
X1813Y2860D01*
X1783Y2872D01*
X1763Y2875D01*
D02*
G37*
G36*
X7737D02*
X7717Y2872D01*
X7687Y2860D01*
X7661Y2839D01*
X7640Y2813D01*
X7628Y2783D01*
X7625Y2763D01*
X7737D01*
Y2875D01*
D02*
G37*
G36*
X7875Y2737D02*
X7763D01*
Y2625D01*
X7783Y2628D01*
X7813Y2640D01*
X7839Y2661D01*
X7860Y2687D01*
X7872Y2717D01*
X7875Y2737D01*
D02*
G37*
G36*
X1737D02*
X1625D01*
X1628Y2717D01*
X1640Y2687D01*
X1661Y2661D01*
X1687Y2640D01*
X1717Y2628D01*
X1737Y2625D01*
Y2737D01*
D02*
G37*
G36*
X1875D02*
X1763D01*
Y2625D01*
X1783Y2628D01*
X1813Y2640D01*
X1839Y2661D01*
X1860Y2687D01*
X1872Y2717D01*
X1875Y2737D01*
D02*
G37*
G36*
X7737D02*
X7625D01*
X7628Y2717D01*
X7640Y2687D01*
X7661Y2661D01*
X7687Y2640D01*
X7717Y2628D01*
X7737Y2625D01*
Y2737D01*
D02*
G37*
G36*
X5000Y4225D02*
X4972Y4222D01*
X4947Y4211D01*
X4925Y4194D01*
X4908Y4172D01*
X4897Y4147D01*
X4894Y4119D01*
X4897Y4091D01*
X4908Y4066D01*
X4925Y4044D01*
X4947Y4027D01*
X4961Y4021D01*
Y3916D01*
X4848Y3803D01*
X3900D01*
X3885Y3800D01*
X3873Y3791D01*
X3690Y3608D01*
X3673Y3615D01*
X3645Y3619D01*
X3617Y3615D01*
X3591Y3604D01*
X3568Y3587D01*
X3551Y3564D01*
X3540Y3538D01*
X3536Y3510D01*
X3540Y3482D01*
X3551Y3456D01*
X3568Y3433D01*
X3591Y3416D01*
X3617Y3405D01*
X3645Y3401D01*
X3673Y3405D01*
X3700Y3416D01*
X3722Y3433D01*
X3739Y3456D01*
X3750Y3482D01*
X3754Y3510D01*
X3750Y3538D01*
X3744Y3553D01*
X3916Y3725D01*
X4864D01*
X4879Y3728D01*
X4891Y3737D01*
X5027Y3873D01*
X5036Y3885D01*
X5039Y3900D01*
Y4021D01*
X5053Y4027D01*
X5075Y4044D01*
X5092Y4066D01*
X5103Y4091D01*
X5106Y4119D01*
X5103Y4147D01*
X5092Y4172D01*
X5075Y4194D01*
X5053Y4211D01*
X5028Y4222D01*
X5000Y4225D01*
D02*
G37*
G36*
X7000Y5725D02*
X6972Y5722D01*
X6947Y5711D01*
X6925Y5694D01*
X6908Y5672D01*
X6897Y5647D01*
X6894Y5619D01*
X6897Y5591D01*
X6908Y5566D01*
X6925Y5544D01*
X6947Y5527D01*
X6961Y5521D01*
Y5216D01*
X6084Y4339D01*
X4181D01*
X4166Y4336D01*
X4154Y4327D01*
X3689Y3863D01*
X3673Y3869D01*
X3645Y3873D01*
X3617Y3869D01*
X3591Y3858D01*
X3568Y3841D01*
X3551Y3818D01*
X3540Y3792D01*
X3536Y3764D01*
X3540Y3736D01*
X3551Y3710D01*
X3568Y3687D01*
X3591Y3670D01*
X3617Y3659D01*
X3645Y3655D01*
X3673Y3659D01*
X3700Y3670D01*
X3722Y3687D01*
X3739Y3710D01*
X3750Y3736D01*
X3754Y3764D01*
X3750Y3792D01*
X3744Y3808D01*
X4197Y4261D01*
X6100D01*
X6115Y4264D01*
X6127Y4273D01*
X7027Y5173D01*
X7036Y5185D01*
X7036Y5188D01*
X7039Y5200D01*
Y5521D01*
X7053Y5527D01*
X7075Y5544D01*
X7092Y5566D01*
X7103Y5591D01*
X7106Y5619D01*
X7103Y5647D01*
X7092Y5672D01*
X7075Y5694D01*
X7053Y5711D01*
X7028Y5722D01*
X7000Y5725D01*
D02*
G37*
G36*
X5500Y4987D02*
X5472Y4984D01*
X5447Y4973D01*
X5425Y4956D01*
X5408Y4934D01*
X5397Y4909D01*
X5394Y4881D01*
X5397Y4853D01*
X5408Y4828D01*
X5425Y4806D01*
X5447Y4789D01*
X5461Y4783D01*
Y4650D01*
X5464Y4635D01*
X5473Y4623D01*
X5623Y4473D01*
X5635Y4464D01*
X5650Y4461D01*
X5865D01*
X5878Y4430D01*
X5900Y4400D01*
X5930Y4378D01*
X5964Y4364D01*
X6000Y4359D01*
X6036Y4364D01*
X6070Y4378D01*
X6100Y4400D01*
X6122Y4430D01*
X6136Y4464D01*
X6141Y4500D01*
X6136Y4536D01*
X6122Y4570D01*
X6100Y4600D01*
X6070Y4622D01*
X6036Y4636D01*
X6000Y4641D01*
X5964Y4636D01*
X5930Y4622D01*
X5900Y4600D01*
X5878Y4570D01*
X5865Y4539D01*
X5666D01*
X5539Y4666D01*
Y4783D01*
X5553Y4789D01*
X5575Y4806D01*
X5592Y4828D01*
X5603Y4853D01*
X5606Y4881D01*
X5603Y4909D01*
X5592Y4934D01*
X5575Y4956D01*
X5553Y4973D01*
X5528Y4984D01*
X5500Y4987D01*
D02*
G37*
G36*
X2121Y3619D02*
X2093Y3615D01*
X2067Y3604D01*
X2044Y3587D01*
X2027Y3564D01*
X2016Y3538D01*
X2012Y3510D01*
X2016Y3482D01*
X2027Y3456D01*
X2044Y3433D01*
X2067Y3416D01*
X2093Y3405D01*
X2121Y3401D01*
X2149Y3405D01*
X2176Y3416D01*
X2198Y3433D01*
X2215Y3456D01*
X2226Y3482D01*
X2230Y3510D01*
X2226Y3538D01*
X2215Y3564D01*
X2198Y3587D01*
X2176Y3604D01*
X2149Y3615D01*
X2121Y3619D01*
D02*
G37*
G36*
X7763Y2875D02*
Y2763D01*
X7875D01*
X7872Y2783D01*
X7860Y2813D01*
X7839Y2839D01*
X7813Y2860D01*
X7783Y2872D01*
X7763Y2875D01*
D02*
G37*
G36*
X2121Y3365D02*
X2093Y3361D01*
X2067Y3350D01*
X2044Y3333D01*
X2027Y3310D01*
X2016Y3284D01*
X2012Y3256D01*
X2016Y3228D01*
X2027Y3202D01*
X2044Y3179D01*
X2067Y3162D01*
X2093Y3151D01*
X2121Y3147D01*
X2149Y3151D01*
X2176Y3162D01*
X2198Y3179D01*
X2215Y3202D01*
X2226Y3228D01*
X2230Y3256D01*
X2226Y3284D01*
X2215Y3310D01*
X2198Y3333D01*
X2176Y3350D01*
X2149Y3361D01*
X2121Y3365D01*
D02*
G37*
G36*
X5500Y4225D02*
X5472Y4222D01*
X5447Y4211D01*
X5425Y4194D01*
X5408Y4172D01*
X5397Y4147D01*
X5394Y4119D01*
X5397Y4091D01*
X5408Y4066D01*
X5425Y4044D01*
X5447Y4027D01*
X5461Y4021D01*
Y3766D01*
X5334Y3639D01*
X4017D01*
X4002Y3636D01*
X3989Y3627D01*
X3707Y3345D01*
X3700Y3350D01*
X3673Y3361D01*
X3645Y3365D01*
X3617Y3361D01*
X3591Y3350D01*
X3568Y3333D01*
X3551Y3310D01*
X3540Y3284D01*
X3536Y3256D01*
X3540Y3228D01*
X3551Y3202D01*
X3568Y3179D01*
X3591Y3162D01*
X3617Y3151D01*
X3645Y3147D01*
X3673Y3151D01*
X3700Y3162D01*
X3722Y3179D01*
X3739Y3202D01*
X3750Y3228D01*
X3754Y3256D01*
X3751Y3279D01*
X4033Y3561D01*
X5350D01*
X5365Y3564D01*
X5377Y3573D01*
X5527Y3723D01*
X5536Y3735D01*
X5539Y3750D01*
Y4021D01*
X5553Y4027D01*
X5575Y4044D01*
X5592Y4066D01*
X5603Y4091D01*
X5606Y4119D01*
X5603Y4147D01*
X5592Y4172D01*
X5575Y4194D01*
X5553Y4211D01*
X5528Y4222D01*
X5500Y4225D01*
D02*
G37*
G36*
X6195Y7163D02*
X6088D01*
Y7056D01*
X6106Y7059D01*
X6136Y7071D01*
X6161Y7090D01*
X6180Y7115D01*
X6192Y7145D01*
X6195Y7163D01*
D02*
G37*
G36*
X6712D02*
X6605D01*
X6608Y7145D01*
X6620Y7115D01*
X6639Y7090D01*
X6664Y7071D01*
X6694Y7059D01*
X6712Y7056D01*
Y7163D01*
D02*
G37*
G36*
X6845D02*
X6738D01*
Y7056D01*
X6757Y7059D01*
X6786Y7071D01*
X6811Y7090D01*
X6831Y7115D01*
X6843Y7145D01*
X6845Y7163D01*
D02*
G37*
G36*
X6062D02*
X5955D01*
X5957Y7145D01*
X5969Y7115D01*
X5989Y7090D01*
X6014Y7071D01*
X6043Y7059D01*
X6062Y7056D01*
Y7163D01*
D02*
G37*
G36*
X1875Y7137D02*
X1763D01*
Y7025D01*
X1783Y7028D01*
X1813Y7040D01*
X1839Y7061D01*
X1860Y7087D01*
X1872Y7117D01*
X1875Y7137D01*
D02*
G37*
G36*
X7737D02*
X7625D01*
X7628Y7117D01*
X7640Y7087D01*
X7661Y7061D01*
X7687Y7040D01*
X7717Y7028D01*
X7737Y7025D01*
Y7137D01*
D02*
G37*
G36*
X7875D02*
X7763D01*
Y7025D01*
X7783Y7028D01*
X7813Y7040D01*
X7839Y7061D01*
X7860Y7087D01*
X7872Y7117D01*
X7875Y7137D01*
D02*
G37*
G36*
X1737Y7275D02*
X1717Y7272D01*
X1687Y7260D01*
X1661Y7239D01*
X1640Y7213D01*
X1628Y7183D01*
X1625Y7163D01*
X1737D01*
Y7275D01*
D02*
G37*
G36*
X6088Y7296D02*
Y7189D01*
X6195D01*
X6192Y7208D01*
X6180Y7237D01*
X6161Y7262D01*
X6136Y7281D01*
X6106Y7294D01*
X6088Y7296D01*
D02*
G37*
G36*
X6712D02*
X6694Y7294D01*
X6664Y7281D01*
X6639Y7262D01*
X6620Y7237D01*
X6608Y7208D01*
X6605Y7189D01*
X6712D01*
Y7296D01*
D02*
G37*
G36*
X6738D02*
Y7189D01*
X6845D01*
X6843Y7208D01*
X6831Y7237D01*
X6811Y7262D01*
X6786Y7281D01*
X6757Y7294D01*
X6738Y7296D01*
D02*
G37*
G36*
X6062D02*
X6043Y7294D01*
X6014Y7281D01*
X5989Y7262D01*
X5969Y7237D01*
X5957Y7208D01*
X5955Y7189D01*
X6062D01*
Y7296D01*
D02*
G37*
G36*
X1763Y7275D02*
Y7163D01*
X1875D01*
X1872Y7183D01*
X1860Y7213D01*
X1839Y7239D01*
X1813Y7260D01*
X1783Y7272D01*
X1763Y7275D01*
D02*
G37*
G36*
X7737D02*
X7717Y7272D01*
X7687Y7260D01*
X7661Y7239D01*
X7640Y7213D01*
X7628Y7183D01*
X7625Y7163D01*
X7737D01*
Y7275D01*
D02*
G37*
G36*
X7763D02*
Y7163D01*
X7875D01*
X7872Y7183D01*
X7860Y7213D01*
X7839Y7239D01*
X7813Y7260D01*
X7783Y7272D01*
X7763Y7275D01*
D02*
G37*
G36*
X1737Y7137D02*
X1625D01*
X1628Y7117D01*
X1640Y7087D01*
X1661Y7061D01*
X1687Y7040D01*
X1717Y7028D01*
X1737Y7025D01*
Y7137D01*
D02*
G37*
G36*
X7000Y6487D02*
X6972Y6484D01*
X6947Y6473D01*
X6925Y6456D01*
X6908Y6434D01*
X6897Y6409D01*
X6894Y6381D01*
X6897Y6353D01*
X6908Y6328D01*
X6925Y6306D01*
X6947Y6289D01*
X6961Y6283D01*
Y6150D01*
X6964Y6135D01*
X6973Y6123D01*
X7123Y5973D01*
X7135Y5964D01*
X7150Y5961D01*
X7365D01*
X7378Y5930D01*
X7400Y5900D01*
X7430Y5878D01*
X7464Y5864D01*
X7500Y5859D01*
X7536Y5864D01*
X7570Y5878D01*
X7600Y5900D01*
X7622Y5930D01*
X7636Y5964D01*
X7641Y6000D01*
X7636Y6036D01*
X7622Y6070D01*
X7600Y6100D01*
X7570Y6122D01*
X7536Y6136D01*
X7500Y6141D01*
X7464Y6136D01*
X7430Y6122D01*
X7400Y6100D01*
X7378Y6070D01*
X7365Y6039D01*
X7166D01*
X7039Y6166D01*
Y6283D01*
X7053Y6289D01*
X7075Y6306D01*
X7092Y6328D01*
X7103Y6353D01*
X7106Y6381D01*
X7103Y6409D01*
X7092Y6434D01*
X7075Y6456D01*
X7053Y6473D01*
X7028Y6484D01*
X7000Y6487D01*
D02*
G37*
G36*
X2110Y6137D02*
X2021D01*
Y6048D01*
X2110D01*
Y6137D01*
D02*
G37*
G36*
X2225D02*
X2136D01*
Y6048D01*
X2225D01*
Y6137D01*
D02*
G37*
G36*
X5500Y6487D02*
X5472Y6484D01*
X5447Y6473D01*
X5425Y6456D01*
X5408Y6434D01*
X5397Y6409D01*
X5394Y6381D01*
X5397Y6353D01*
X5408Y6328D01*
X5425Y6306D01*
X5447Y6289D01*
X5461Y6283D01*
Y6150D01*
X5464Y6135D01*
X5473Y6123D01*
X5623Y5973D01*
X5635Y5964D01*
X5650Y5961D01*
X5865D01*
X5878Y5930D01*
X5900Y5900D01*
X5930Y5878D01*
X5964Y5864D01*
X6000Y5859D01*
X6036Y5864D01*
X6070Y5878D01*
X6100Y5900D01*
X6122Y5930D01*
X6136Y5964D01*
X6141Y6000D01*
X6136Y6036D01*
X6122Y6070D01*
X6100Y6100D01*
X6070Y6122D01*
X6036Y6136D01*
X6000Y6141D01*
X5964Y6136D01*
X5930Y6122D01*
X5900Y6100D01*
X5878Y6070D01*
X5865Y6039D01*
X5666D01*
X5539Y6166D01*
Y6283D01*
X5553Y6289D01*
X5575Y6306D01*
X5592Y6328D01*
X5603Y6353D01*
X5606Y6381D01*
X5603Y6409D01*
X5592Y6434D01*
X5575Y6456D01*
X5553Y6473D01*
X5528Y6484D01*
X5500Y6487D01*
D02*
G37*
G36*
X5000Y5725D02*
X4972Y5722D01*
X4947Y5711D01*
X4925Y5694D01*
X4908Y5672D01*
X4897Y5647D01*
X4894Y5619D01*
X4897Y5591D01*
X4903Y5577D01*
X3694Y4368D01*
X3673Y4377D01*
X3645Y4381D01*
X3617Y4377D01*
X3591Y4366D01*
X3568Y4349D01*
X3551Y4326D01*
X3540Y4300D01*
X3536Y4272D01*
X3540Y4244D01*
X3551Y4218D01*
X3568Y4195D01*
X3591Y4178D01*
X3617Y4167D01*
X3645Y4163D01*
X3673Y4167D01*
X3700Y4178D01*
X3722Y4195D01*
X3739Y4218D01*
X3750Y4244D01*
X3754Y4272D01*
X3750Y4300D01*
X3746Y4310D01*
X4958Y5522D01*
X4972Y5516D01*
X5000Y5513D01*
X5028Y5516D01*
X5053Y5527D01*
X5075Y5544D01*
X5092Y5566D01*
X5103Y5591D01*
X5106Y5619D01*
X5103Y5647D01*
X5092Y5672D01*
X5075Y5694D01*
X5053Y5711D01*
X5028Y5722D01*
X5000Y5725D01*
D02*
G37*
G36*
X5500D02*
X5472Y5722D01*
X5447Y5711D01*
X5425Y5694D01*
X5408Y5672D01*
X5402Y5658D01*
X5269D01*
X5254Y5655D01*
X5242Y5646D01*
X3704Y4109D01*
X3700Y4112D01*
X3673Y4123D01*
X3645Y4127D01*
X3617Y4123D01*
X3591Y4112D01*
X3568Y4095D01*
X3551Y4072D01*
X3540Y4046D01*
X3536Y4018D01*
X3540Y3990D01*
X3551Y3964D01*
X3568Y3941D01*
X3591Y3924D01*
X3617Y3913D01*
X3645Y3909D01*
X3673Y3913D01*
X3700Y3924D01*
X3722Y3941D01*
X3739Y3964D01*
X3750Y3990D01*
X3754Y4018D01*
X3750Y4045D01*
X5285Y5580D01*
X5402D01*
X5408Y5566D01*
X5425Y5544D01*
X5447Y5527D01*
X5472Y5516D01*
X5500Y5513D01*
X5528Y5516D01*
X5553Y5527D01*
X5575Y5544D01*
X5592Y5566D01*
X5603Y5591D01*
X5606Y5619D01*
X5603Y5647D01*
X5592Y5672D01*
X5575Y5694D01*
X5553Y5711D01*
X5528Y5722D01*
X5500Y5725D01*
D02*
G37*
G36*
X3275Y6487D02*
X3247Y6484D01*
X3222Y6473D01*
X3200Y6456D01*
X3183Y6434D01*
X3172Y6409D01*
X3169Y6381D01*
X3172Y6353D01*
X3183Y6328D01*
X3200Y6306D01*
X3222Y6289D01*
X3247Y6278D01*
X3275Y6275D01*
X3303Y6278D01*
X3317Y6284D01*
X3502Y6100D01*
X3514Y6091D01*
X3529Y6088D01*
X3585D01*
X3596Y6073D01*
X3601Y6070D01*
Y6057D01*
X3596Y6054D01*
X3584Y6038D01*
X3577Y6020D01*
X3574Y6000D01*
X3577Y5980D01*
X3584Y5962D01*
X3596Y5946D01*
X3601Y5943D01*
Y5930D01*
X3596Y5927D01*
X3584Y5911D01*
X3577Y5893D01*
X3576Y5886D01*
X3824D01*
X3823Y5893D01*
X3816Y5911D01*
X3804Y5927D01*
X3804Y5927D01*
X3803Y5941D01*
X3810Y5948D01*
X3870D01*
X3878Y5930D01*
X3900Y5900D01*
X3930Y5878D01*
X3964Y5864D01*
X4000Y5859D01*
X4036Y5864D01*
X4070Y5878D01*
X4100Y5900D01*
X4122Y5930D01*
X4136Y5964D01*
X4141Y6000D01*
X4136Y6036D01*
X4122Y6070D01*
X4100Y6100D01*
X4070Y6122D01*
X4036Y6136D01*
X4000Y6141D01*
X3964Y6136D01*
X3930Y6122D01*
X3900Y6100D01*
X3878Y6070D01*
X3870Y6052D01*
X3805D01*
X3804Y6054D01*
X3799Y6057D01*
Y6070D01*
X3804Y6073D01*
X3816Y6089D01*
X3823Y6107D01*
X3826Y6127D01*
X3823Y6147D01*
X3816Y6165D01*
X3804Y6181D01*
X3788Y6193D01*
X3770Y6200D01*
X3750Y6203D01*
X3650D01*
X3630Y6200D01*
X3612Y6193D01*
X3596Y6181D01*
X3585Y6166D01*
X3545D01*
X3372Y6339D01*
X3378Y6353D01*
X3381Y6381D01*
X3378Y6409D01*
X3367Y6434D01*
X3350Y6456D01*
X3328Y6473D01*
X3303Y6484D01*
X3275Y6487D01*
D02*
G37*
G36*
X2110Y6252D02*
X2021D01*
Y6163D01*
X2110D01*
Y6252D01*
D02*
G37*
G36*
X6075Y6846D02*
X6043Y6841D01*
X6014Y6829D01*
X5989Y6810D01*
X5969Y6785D01*
X5957Y6755D01*
X5953Y6724D01*
X5957Y6692D01*
X5969Y6663D01*
X5989Y6638D01*
X6014Y6619D01*
X6043Y6606D01*
X6075Y6602D01*
X6106Y6606D01*
X6136Y6619D01*
X6161Y6638D01*
X6180Y6663D01*
X6192Y6692D01*
X6197Y6724D01*
X6192Y6755D01*
X6180Y6785D01*
X6161Y6810D01*
X6136Y6829D01*
X6106Y6841D01*
X6075Y6846D01*
D02*
G37*
G36*
X4360Y6787D02*
X4297D01*
Y6750D01*
X4300Y6730D01*
X4307Y6712D01*
X4319Y6696D01*
X4335Y6684D01*
X4353Y6677D01*
X4360Y6676D01*
Y6787D01*
D02*
G37*
G36*
Y6924D02*
X4353Y6923D01*
X4335Y6916D01*
X4319Y6904D01*
X4307Y6888D01*
X4300Y6870D01*
X4297Y6850D01*
Y6813D01*
X4360D01*
Y6924D01*
D02*
G37*
G36*
X3638Y6664D02*
X3634Y6659D01*
X3626Y6640D01*
X3624Y6621D01*
X3626Y6601D01*
X3634Y6583D01*
X3646Y6567D01*
X3672Y6540D01*
X3717Y6585D01*
X3638Y6664D01*
D02*
G37*
G36*
X2390Y6251D02*
Y6163D01*
X2478D01*
X2476Y6177D01*
X2466Y6201D01*
X2449Y6222D01*
X2428Y6239D01*
X2404Y6249D01*
X2390Y6251D01*
D02*
G37*
G36*
X1800Y6851D02*
X1761Y6847D01*
X1723Y6836D01*
X1688Y6817D01*
X1658Y6792D01*
X1633Y6762D01*
X1614Y6727D01*
X1602Y6689D01*
X1599Y6650D01*
X1602Y6611D01*
X1614Y6573D01*
X1633Y6538D01*
X1658Y6508D01*
X1688Y6483D01*
X1723Y6464D01*
X1761Y6452D01*
X1800Y6449D01*
X1839Y6452D01*
X1877Y6464D01*
X1912Y6483D01*
X1942Y6508D01*
X1967Y6538D01*
X1986Y6573D01*
X1998Y6611D01*
X2001Y6650D01*
X1998Y6689D01*
X1986Y6727D01*
X1967Y6762D01*
X1942Y6792D01*
X1912Y6817D01*
X1877Y6836D01*
X1839Y6847D01*
X1800Y6851D01*
D02*
G37*
G36*
X3735Y6567D02*
X3690Y6522D01*
X3717Y6496D01*
X3733Y6484D01*
X3751Y6476D01*
X3771Y6474D01*
X3790Y6476D01*
X3809Y6484D01*
X3814Y6488D01*
X3735Y6567D01*
D02*
G37*
%LPD*%
D10*
X2306Y6681D02*
X3281D01*
X1850Y4289D02*
Y6225D01*
X2306Y6681D01*
X4227Y5857D02*
Y7117D01*
X4120Y5750D02*
X4227Y5857D01*
X3235Y5750D02*
X4120D01*
X3125Y5640D02*
X3235Y5750D01*
X3125Y5275D02*
Y5640D01*
X2121Y4272D02*
X3125Y5275D01*
X6725Y6025D02*
Y6724D01*
X3275Y4918D02*
Y5619D01*
X2121Y3764D02*
X3275Y4918D01*
X1850Y4289D02*
X2121Y4018D01*
X2000Y2698D02*
X2148Y2550D01*
X2000Y2698D02*
Y2900D01*
X2102Y3002D01*
X2121D01*
Y2748D02*
X2268Y2601D01*
X3669D01*
X6819Y3200D02*
X7000Y3381D01*
Y4650D02*
Y4881D01*
Y4650D02*
X7150Y4500D01*
X7500D01*
X5500Y4650D02*
Y4881D01*
Y4650D02*
X5650Y4500D01*
X6000D01*
X4500D02*
X4850D01*
X5000Y4650D01*
Y4881D01*
X4500Y6000D02*
X4850D01*
X5000Y6150D01*
Y6381D01*
X5650Y6000D02*
X6000D01*
X5500Y6150D02*
X5650Y6000D01*
X5500Y6150D02*
Y6381D01*
X7000Y6150D02*
Y6381D01*
Y6150D02*
X7150Y6000D01*
X7500D01*
X3653Y4272D02*
X5000Y5619D01*
X4500Y3000D02*
X4850D01*
X5000Y2850D01*
Y2619D02*
Y2850D01*
X5650Y3000D02*
X6000D01*
X5500Y2850D02*
X5650Y3000D01*
X5500Y2619D02*
Y2850D01*
X7150Y3000D02*
X7500D01*
X7000Y2850D02*
X7150Y3000D01*
X7000Y2619D02*
Y2850D01*
X5390Y3199D02*
X5391Y3200D01*
X6819D01*
X4864Y3764D02*
X5000Y3900D01*
Y4119D01*
X7000Y3650D02*
Y4119D01*
X6500Y5800D02*
X6725Y6025D01*
X3700Y2550D02*
X4349Y3199D01*
X5390D01*
X2148Y2550D02*
X3700D01*
X3645Y2748D02*
X4278Y3381D01*
X5000D01*
X3645Y3256D02*
X3673D01*
X3645Y3510D02*
X3646D01*
X3900Y3764D01*
X4864D01*
X3645Y4018D02*
X3668D01*
X3645Y4272D02*
X3653D01*
X3645Y4526D02*
X4919Y5800D01*
X6500D01*
X3645Y3764D02*
X4181Y4300D01*
X6100D01*
X7000Y5200D01*
Y5619D01*
X3668Y4018D02*
X5269Y5619D01*
X5500D01*
Y3750D02*
Y4119D01*
X3673Y3256D02*
X4017Y3600D01*
X5350D01*
X5500Y3750D01*
X3669Y2601D02*
X4318Y3250D01*
X5369D01*
X5500Y3381D01*
X3645Y3002D02*
X4143Y3500D01*
X6850D01*
X7000Y3650D01*
X3275Y6381D02*
X3529Y6127D01*
X3700D01*
X3819Y6860D02*
Y7219D01*
Y6860D02*
X3915Y6765D01*
X4627Y6971D02*
X4881Y7225D01*
X4627Y6800D02*
Y6971D01*
X4119Y7225D02*
X4227Y7117D01*
D11*
X4373Y6800D02*
X4375Y6802D01*
X3650Y6000D02*
X4000D01*
X3825Y6675D02*
X4075Y6425D01*
X4500Y6500D02*
Y6800D01*
X2125Y4775D02*
X2377Y5027D01*
Y6150D01*
D12*
X3645Y5542D02*
D03*
Y5288D02*
D03*
Y5034D02*
D03*
Y4780D02*
D03*
Y4526D02*
D03*
Y4272D02*
D03*
Y4018D02*
D03*
Y3764D02*
D03*
Y3510D02*
D03*
Y3256D02*
D03*
Y3002D02*
D03*
Y2748D02*
D03*
X2121Y5542D02*
D03*
Y5288D02*
D03*
Y5034D02*
D03*
Y4780D02*
D03*
Y4526D02*
D03*
Y4272D02*
D03*
Y4018D02*
D03*
Y3764D02*
D03*
Y3510D02*
D03*
Y3256D02*
D03*
Y3002D02*
D03*
Y2748D02*
D03*
D13*
X2250Y7100D02*
D03*
X1800Y6650D02*
D03*
D14*
X1750Y7150D02*
D03*
X7750D02*
D03*
Y2750D02*
D03*
X1750D02*
D03*
D15*
X5000Y6381D02*
D03*
Y5619D02*
D03*
X5500Y6381D02*
D03*
Y5619D02*
D03*
X7000Y6381D02*
D03*
Y5619D02*
D03*
X5000Y4881D02*
D03*
Y4119D02*
D03*
X5500Y4881D02*
D03*
Y4119D02*
D03*
X7000Y4881D02*
D03*
Y4119D02*
D03*
X5000Y2619D02*
D03*
Y3381D02*
D03*
X5500Y2619D02*
D03*
Y3381D02*
D03*
X7000Y2619D02*
D03*
Y3381D02*
D03*
X4119Y7225D02*
D03*
X4881D02*
D03*
X3281Y6681D02*
D03*
X3819Y7219D02*
D03*
X3275Y5619D02*
D03*
Y6381D02*
D03*
D16*
X6725Y6724D02*
D03*
Y7176D02*
D03*
X6075Y6724D02*
D03*
Y7176D02*
D03*
D17*
X4000Y6000D02*
D03*
X4075Y6425D02*
D03*
X4500Y6500D02*
D03*
Y6000D02*
D03*
X6000D02*
D03*
X4500Y4500D02*
D03*
X6000D02*
D03*
Y3000D02*
D03*
X4500D02*
D03*
X7500D02*
D03*
Y4500D02*
D03*
Y6000D02*
D03*
D18*
X2123Y6150D02*
D03*
D19*
X2377D02*
D03*
D20*
X3700Y5873D02*
D03*
Y6127D02*
D03*
D21*
Y6000D02*
D03*
D22*
X3735Y6585D02*
D03*
X3915Y6765D02*
D03*
D23*
X3825Y6675D02*
D03*
D24*
X4373Y6800D02*
D03*
X4627D02*
D03*
D25*
X4500D02*
D03*
M02*
