M48
;Layer_Color=6321
;FILE_FORMAT=4:2
METRIC,TZ
;TYPE=PLATED
T1F00S00C0.80
T2F00S00C0.91
T3F00S00C1.00
T4F00S00C1.02
T5F00S00C1.27
T6F00S00C4.50
%
T01
X5000Y2619
X5500
Y3381
X5000
X7000
Y2619
Y4119
Y4881
Y5619
Y6381
X5500
X5000
Y5619
X5500
Y4881
X5000
Y4119
X5500
X4665Y6850
X4500
X4335
X4119Y7225
X4881
X3819Y7219
X3825Y6675
X3708Y6558
X3650Y6165
Y6000
Y5835
X3275Y5619
Y6381
X3281Y6681
X3942Y6792
T02
X2121Y2748
Y3002
Y3256
Y3510
Y3764
X3645
Y3510
Y3256
Y3002
Y2748
Y4018
Y4272
Y4526
Y4780
Y5034
Y5288
Y5542
X2121
Y5288
Y5034
Y4780
Y4526
Y4272
Y4018
X2123Y6150
X2377
T03
X1750Y2725
X4500Y3000
X6000
X7500
X7750Y2725
X7500Y4500
Y6000
X7750Y7125
X6000Y6000
Y4500
X4500
Y6000
X1750Y7125
T04
X6075Y6724
Y7176
X6725
Y6724
T05
X4000Y6000
X4075Y6425
X4500Y6500
T06
X2250Y7025
X2850
M30
